<?xml version="1.0" encoding="utf-8"?>
<!-- Generator: Adobe Illustrator 21.1.0, SVG Export Plug-In . SVG Version: 6.00 Build 0)  -->
<svg version="1.1" id="Capa_2" xmlns="http://www.w3.org/2000/svg" xmlns:xlink="http://www.w3.org/1999/xlink" x="0px" y="0px"
	 viewBox="0 0 1366 768" style="enable-background:new 0 0 1366 768;" xml:space="preserve">
<g>
	<path d="M682.9,523.8c-27.9,0-55.8-0.7-83.6,0.3c-14.1,0.5-26-3.2-37.5-10.7c-87.7-57.3-119-165-73.8-255.7
		c23.1-46.4,59.4-78.9,106.9-99.1c5.9-2.5,8.2-5.4,8-11.9c-0.5-17.6-0.2-35.1-0.3-52.7c-0.1-16.4-5.4-30.6-16.2-43.3
		c-3.2-3.8-5.5-10.4-4.6-15.1c1.3-6.7,8.2-7.8,14.7-7.8c57.6,0.1,115.1-0.1,172.7,0.3c4.9,0,12.1,3.3,13.9,7.1
		c1.8,3.8-0.2,11.7-3.4,15.1c-12.7,13.6-17.2,29.4-16.9,47.5c0.3,16.4,0.4,32.7-0.1,49.1c-0.2,6.6,2.2,9.3,8.1,11.8
		c59.1,25.7,101.2,68.1,119,130.4c22,76.7,1.7,143.4-54.6,199.5c-3.2,3.2-6.6,6.2-10.1,9.2c-20.5,17.7-42.4,29.5-71.4,26.5
		C730.4,521.9,706.5,523.8,682.9,523.8z M620.7,52.9c2.2,13.4,5.6,26.3,6.3,39.4c1.1,21.5,0.5,43,0.5,64.5c0,14.2-1,15.5-14.2,20.6
		c-42.2,16.2-75.9,42.7-98.5,82.1c-46.1,80.3-21.4,185.3,67.5,237.3c3.6,2.1,8.6,2.8,12.9,2.8c49.1,0.2,98.3-1.9,147.2,0.8
		c31.6,1.7,55.9-8.2,76.8-30.1c6.1-6.3,12-12.8,17.5-19.7c46.9-58.9,50-139.6,7.8-201.7c-23.4-34.5-55.3-58.1-94.3-72.3
		c-7.2-2.6-12.6-6.3-12.1-14.8c1.9-36.3-5.7-73.3,8.6-109C703.8,52.9,661.6,52.9,620.7,52.9z"/>
	<path d="M358.9,620.6c0,20.7,0,40,0,59.7c-9.6,0-18.3,0-27.6,0c0-52.4,0-104.8,0-156.9c27.5,0,54.8-2.2,81.6,0.6
		c25.4,2.7,39.1,24.5,37.3,51.6c-1.6,24.6-20.2,43.5-45.3,44.8C390.2,621.3,375.3,620.6,358.9,620.6z M359.6,593.7
		c15.1,0,29.3,0.6,43.5-0.2c10.4-0.6,17.7-9.7,18.2-20.5c0.5-11.3-6.1-22.3-16.1-23c-14.9-1.1-30-0.3-45.5-0.3
		C359.6,564.1,359.6,578.5,359.6,593.7z"/>
	<path d="M749.9,673.4c0,11.7-0.3,22.3,0.1,32.9c0.2,5.1-1.6,7.7-6.2,9.5c-6.7,2.6-13.2,5.8-20.6,9.2c0-54.1,0-107.3,0-161
		c8.4,0,17.1,0,26,0c0.4,1.4,1,3.2,1.6,5.2c23.5-17.2,62.4-8.7,69.7,28.6c2.8,14.2,2.7,29.6,0.7,44
		C816.7,674.2,782.9,694.6,749.9,673.4z M797.3,620.3c-1.4-13.8-1.4-16.2-7.4-24.5c-5.9-8.3-15.9-10.8-26.3-7.6
		c-10.7,3.4-13.7,7.8-13.7,20c0,10.3-0.4,20.6,0.2,30.8c0.2,3.7,2.2,8.3,4.9,10.8c12.7,11.5,33.6,7.1,39.6-8.8
		C796.8,635.4,797,630.2,797.3,620.3z"/>
	<path d="M923.2,649.2c6.5,5.9,12.2,11.2,17.9,16.4c-18.6,23.9-58.3,25.7-79.5,4.2c-22.5-23-20.7-74.5,3.9-95.1
		c16.7-14,36.2-14.7,55.7-7.5c19.1,7.1,27.5,22.7,28.7,42.5c0.5,7.8,0.1,15.7,0.1,24.9c-13.2,0-25.8,0-38.4,0c-12.4,0-24.8,0-37.8,0
		c0.8,11.3,5.9,19.1,15.4,23.2C902.6,663.7,913.9,659.1,923.2,649.2z M874.4,611c15.9,0,31.8,0,47.7,0c-0.1-13.4-8.7-22.8-21.3-23.5
		C885.9,586.7,875.7,595.6,874.4,611z"/>
	<path d="M460.9,622.8c1.2-21.3,5.8-40.8,25-53c31.8-20.3,72-3.7,80.3,33.3c4.4,19.3,3.8,38.7-6.3,56.3
		c-12.2,21.2-32.2,26.1-54.8,23.1c-20.7-2.7-33.8-15.3-39.7-34.9C462.9,639.6,462.3,631.1,460.9,622.8z M541.5,624.3
		c0-13.1-2.5-17-5.9-23.5c-8.8-16.8-31.1-17.4-40.6-1c-8.6,14.9-8.7,30.9,0,45.8c9.2,15.8,31.4,15.5,40.2-0.5
		C539,638.5,540.4,633.8,541.5,624.3z"/>
	<path d="M1047.8,569.6l-3.6,25l-1.4-0.9c-5.3-1.6-10-3.5-14.9-4.3c-12.4-1.9-21.8,4.2-23.7,16.6c-1.6,11-1.3,22.3-1.5,33.4
		c-0.2,13.3,0,26.6,0,40.6H976V564.7l26.7,0.2c0.5,2.2,0,4.8,0,8.3c10.4-11.2,23.1-13.4,35.8-8.9
		C1047,566.7,1047.8,569.6,1047.8,569.6z"/>
	<path d="M663.9,203.7c23.6,0,46-0.1,68.4,0c7.5,0,13.3,3.4,17.1,10.1c5.3,9.5,10.9,18.8,16.8,29c5.8-3.3,11.1-6.3,16.4-9.4
		c0.4,0.4,0.9,0.7,1.3,1.1c-9.4,17.1-18.7,34.2-28.4,51.2c-0.8,1.5-4.2,2.1-6.3,2.1c-18.2,0.2-36.3,0.1-55.2-1.9
		c5.3-3.4,10.7-6.8,16.8-10.6C694.2,252.1,686.4,224.1,663.9,203.7z"/>
	<path d="M551,302.5c18.7,0,37.3-0.1,56,0.2c2.2,0,5.2,1.9,6.3,3.8c9.3,16.5,18.3,33.3,28.6,52.2c-7.8-4.2-13.4-7.2-20-10.7
		c-11.9,25.3-30.3,46.5-37.5,75.3c-5.7-9.9-10.8-18.8-15.9-27.8c-6-10.5-11.8-21.1-18.1-31.4c-4.1-6.7-4.1-12.8,0-19.4
		c5.6-9.3,10.7-18.9,16.5-29.3c-5.4-3.3-10.7-6.5-16-9.8C550.9,304.4,551,303.4,551,302.5z"/>
	<path d="M727.6,370.6c0,5.9,0,11.9,0,19c27.8-2.2,55,3.5,83.2-4.5c-2.5,4.5-4.8,8.5-7,12.5c-8.8,15.6-17.6,31.1-26.3,46.7
		c-3.9,7.1-9.6,10.5-17.7,10.3c-10.3-0.2-20.6,0-31.8,0c-0.4,6.5-0.8,12.6-1.3,21.5c-11.2-18.9-21-35.4-30.6-52
		c-0.7-1.3-0.5-3.7,0.3-5.1c9.5-16.4,19.2-32.7,28.8-49C726,370.1,726.8,370.3,727.6,370.6z"/>
	<path d="M676.3,388.8c0,22.6,0,43.6,0,65.3c-19.8,0-39.1,1.3-58.2-0.4c-17.1-1.5-28.5-19.4-24.1-36.1c2.4-9.2,7.7-17.6,12-26.2
		c0.7-1.4,3.5-2.4,5.3-2.4C632.6,388.7,654.1,388.8,676.3,388.8z"/>
	<path d="M648.3,302c-19-11.2-37.1-21.9-55.8-33c9.8-17,18.5-33.6,28.6-49.3c10.8-16.7,34.7-17.3,47.5-1.5c4.9,6,8.6,13.1,12.5,19.9
		c0.9,1.7,1,4.8,0,6.5c-9.1,16.4-18.4,32.6-27.7,48.9C652,296.1,650.4,298.7,648.3,302z"/>
	<path d="M791.8,288.7c9.6,17.2,19.6,33.4,28,50.4c8.1,16.4-2.2,36.5-20,41.5c-2.3,0.6-4.7,0.9-7.1,1.3c-15,2.4-26-0.8-32.6-16.9
		c-6.1-14.9-15.7-28.5-24.4-43.8C754.4,310.4,772.7,299.8,791.8,288.7z"/>
	<path d="M622.8,673.4c0,11.7-0.3,22.3,0.1,32.9c0.2,5.1-1.6,7.7-6.2,9.5c-6.7,2.6-13.2,5.8-20.6,9.2c0-54.1,0-107.3,0-161
		c8.4,0,17.1,0,26,0c0.4,1.4,1,3.2,1.6,5.2c23.5-17.2,62.4-8.7,69.7,28.6c2.8,14.2,2.7,29.6,0.7,44
		C689.6,674.2,655.8,694.6,622.8,673.4z M670.1,620.3c-1.4-13.8-1.4-16.2-7.4-24.5c-5.9-8.3-15.9-10.8-26.3-7.6
		c-10.7,3.4-13.7,7.8-13.7,20c0,10.3-0.4,20.6,0.2,30.8c0.2,3.7,2.2,8.3,4.9,10.8c12.7,11.5,33.6,7.1,39.6-8.8
		C669.6,635.4,669.9,630.2,670.1,620.3z"/>
</g>
</svg>
